<svg width="236" height="236" xmlns="http://www.w3.org/2000/svg" stroke="null" style="vector-effect: non-scaling-stroke;" preserveAspectRatio="xMidYMid meet">
 <metadata stroke="null" style="vector-effect: non-scaling-stroke;">Created by potrace 1.15, written by Peter Selinger 2001-2017</metadata>

 <g stroke="null">
  <title stroke="null">background</title>
  <rect stroke="null" fill="none" id="canvas_background" height="402" width="582" y="-1" x="-1"/>
 </g>
 <g stroke="null">
  <title stroke="null">Layer 1</title>
  <g id="svg_1" fill="#000000" transform="translate(0,236) scale(0.10000000149011612,-0.10000000149011612) ">
   <path stroke="null" id="svg_2" d="m1738.187701,2215.448183c-84.062689,-21.264283 -193.344185,-39.49081 -240.979709,-42.528565c-137.302392,0 -207.354633,-151.887732 -72.854331,-151.887732c25.218807,0 100.875227,-27.339792 168.125378,-60.755093c117.687765,-57.717338 120.489854,-60.755093 75.65642,-133.661204c-112.083586,-182.265279 -910.679133,-835.382527 -1249.731979,-1020.685561c-156.91702,-88.094885 -235.37553,-197.454052 -168.125378,-239.982617c16.812538,-12.151019 -2.80209,-42.528565 -53.239703,-75.943866c-98.073137,-60.755093 -106.479406,-124.54794 -28.020896,-170.11426c70.052241,-39.49081 106.479406,-30.377546 442.730163,124.54794c142.906572,63.792848 327.844488,127.585695 411.907177,136.698959c145.708661,18.226528 151.31284,18.226528 168.125378,-54.679584c11.208359,-42.528565 61.645972,-124.54794 114.885675,-179.227524l98.073137,-100.245903l-64.448062,-54.679584c-36.427165,-27.339792 -58.843882,-57.717338 -50.437613,-63.792848c8.406269,-6.075509 131.698213,-24.302037 274.604785,-33.415301c224.167171,-21.264283 257.792247,-15.188773 257.792247,24.302037c0,27.339792 -56.041793,78.981621 -126.094034,115.434677c-140.104482,72.906111 -187.740006,173.152015 -123.291944,258.209145c22.416717,27.339792 126.094034,109.359167 229.77135,185.303033c347.459115,243.020372 453.938521,489.078498 423.115535,993.345769c-19.614627,312.888728 -53.239703,416.172386 -159.719109,504.267271c-98.073137,75.943866 -162.521199,85.05713 -327.844488,39.49081z"/>
  </g>
 </g>
</svg>